# xmcd
#
# Track frame offsets:
#	150
#	17740
#	36213
#	51884
#	65459
#	74104
#	86740
#	103974
#	119020
#	135647
#
# Disc length: 2045 seconds
#
# Revision: 2
# Processed by: cddbd v1.5.2PL0 Copyright (c) Steve Scherf et al.
# Submitted via: EasyCDDAExtractor 11.1.0.1
#
DISCID=9907fb0a
DTITLE=Dr Feelgood - Sneakin' Suspicion
DYEAR=1977
DGENRE=Blues
TTITLE0=Sneakin' Suspicion
TTITLE1=Paradise
TTITLE2=Nothin' Shakin' (But The Leaves On The Trees)
TTITLE3=Time And The Devil
TTITLE4=Lights Out
TTITLE5=Lucky Seven
TTITLE6=All My Love
TTITLE7=You'll Be Mine
TTITLE8=Walking On The Edge
TTITLE9=Hey Mama, Keep Your Big Mouth Shut
EXTD=ARD Grand Records GRAND CD 13
EXTT0=
EXTT1=
EXTT2=
EXTT3=
EXTT4=
EXTT5=
EXTT6=
EXTT7=
EXTT8=
EXTT9=
PLAYORDER=
